<?xml version="1.0"
encoding="UTF-8"
standalone="no"?>
<!DOCTYPE svg PUBLIC "-//W3C//DTD SVG 1.1//EN" "http://www.w3.org/Graphics/SVG/1.1/DTD/svg11.dtd">
<!-- Created with Vectornator (http://vectornator.io/) -->
<svg height="100%"
stroke-miterlimit="10"
style="fill-rule:nonzero;clip-rule:evenodd;stroke-linecap:round;stroke-linejoin:round;"
version="1.1"
viewBox="0 0 1024 1024"
width="100%"
xml:space="preserve"
xmlns="http://www.w3.org/2000/svg"
xmlns:vectornator="http://vectornator.io"
xmlns:xlink="http://www.w3.org/1999/xlink">
<defs/>
<clipPath id="ArtboardFrame">
<rect height="1024"
width="1024"
x="0"
y="0"/>
</clipPath>
    <style type="text/css">
        .thick-brain-line {
            stroke: white;
            fill: none;
            opacity: 1;
<!--            stroke-width: 12.5423;-->
            stroke-width:20;
        }
        .thin-brain-line {
            stroke: white;
            fill: none;
            opacity: 1;
            stroke-width: 9.24449;
        }
        .falling-number {
            stroke: white;
            fill: none;
            opacity: 1;
<!--            stroke-width: 10.3438;-->
            stroke-width: 13;
        }
    </style>
<g clip-path="url(#ArtboardFrame)" id="Calque-1" vectornator:layerName="Calque 1">
<path class="thick-brain-line"
    d="M405.667 1620.02C456.104 1592 519.543 1577.61 575.311 1565.59C716.611 1535.11 863.24 1531.34 1007.02 1521.28C1073.95 1516.59 1139.9 1514.95 1207.04 1514.95C1226.03 1514.95 1245.24 1512.07 1264.01 1514.95C1308.4 1521.74 1349.54 1543.55 1389.35 1564.32"
    stroke-linecap="round"
    stroke-linejoin="round"
    />
<path class="thick-brain-line"
    d="M472.765 1617.49C600.636 1582.62 733.069 1556.87 865.225 1546.6C926.528 1541.83 995.479 1536.07 1056.39 1546.6C1104.66 1554.93 1148.88 1580.05 1191.85 1603.57"
    stroke-linecap="round"
    stroke-linejoin="round"
    />
<path class="thick-brain-line"
    d="M508.748 22.0285C488.029 21.6802 467.205 28.9887 448.059 36.9359C439.6 40.4466 427.975 40.9515 420.216 45.9617C415.241 49.1738 409.731 59.0125 404.747 60.9432C397.875 63.6054 400.761 50.3182 392.334 48.958C380.529 47.0525 369.604 53.1266 358.304 54.9506C340.805 57.7753 323.085 52.3383 305.712 57.9469C274.463 68.0354 249.703 86.8765 222.145 102.891C214.656 107.243 199.042 126.861 191.208 126.861C190.535 126.861 180.486 119.909 177.267 119.389C150.551 115.077 128.992 125.886 115.394 147.835C110.32 156.027 106.166 169.907 104.547 179.315C104.038 182.271 106.735 186.184 104.547 188.304C102.359 190.423 98.3007 187.716 95.2662 188.304C87.8022 189.749 71.4149 201.999 67.4232 207.798C42.1978 244.445 36.9473 287.597 47.2953 327.686C47.983 330.351 44.0493 331.496 42.6739 332.162C31.5084 337.569 21.8859 353.374 19.4523 365.158C15.4345 384.615 23.0888 412.306 39.5803 425.084C50.442 433.5 74.2078 433.436 87.5512 435.59C104.654 438.35 121.325 446.662 138.616 449.054C150.313 450.673 159.852 453.845 171.08 456.564C174.489 457.389 185.821 454.342 188.114 456.564C188.723 457.153 189.648 468.554 192.736 471.545C197.138 475.809 205.862 475.137 211.336 476.021C223.67 478.012 242.639 477.677 254.647 473.025C266.596 468.395 279.456 458.351 293.337 461.039C299.12 462.16 304.557 474.181 310.333 477.537C322.996 484.896 346.684 492.254 361.398 494.036C367.811 494.812 383.973 496.345 389.241 492.519C394.178 488.932 397.805 477.537 404.747 477.537C414.235 477.538 424.645 489.51 434.118 491.039C443.083 492.486 443.989 495.819 452.68 500.028C466.482 506.712 494.811 514.659 509.932 516.489C518.19 517.489 542.163 513.756 548.622 507.5C552.335 503.904 552.762 489.523 559.469 489.523C571.008 489.523 580.066 494.532 588.84 500.324C592.452 496.421 596.382 492.985 600.679 489.634C600.807 483.113 602.355 476.6 605.492 470.583C605.126 468.158 604.747 465.586 604.613 464.665C603.974 460.247 603.448 456.189 602.971 452.273C601.86 443.141 601.19 435.242 601.061 428.191C600.973 423.358 601.116 418.888 601.634 414.579C602.523 407.19 604.306 400.476 608.28 393.42C618.611 375.075 639.445 366.739 659.115 370.744C660.235 369.803 661.322 368.836 662.553 367.97C669.254 363.249 677.055 360.076 685.545 358.907C696.873 357.347 707.534 359.539 716.787 364.234C717.912 364.804 718.83 365.535 719.881 366.157C720.602 365.373 721.241 364.545 722.02 363.79C731.091 355.004 743.52 349.878 756.929 350.14C767.242 350.341 775.899 353.496 783.282 358.241C790.292 362.746 795.076 367.85 799.82 374.258C801.395 376.386 802.877 378.706 804.365 381.028C804.655 380.828 804.869 380.596 805.167 380.399C818.799 371.365 835.47 369.807 850.312 375.183C858.276 365.423 869.286 358.745 881.63 356.65C882.984 350.307 884.863 344.527 888.008 338.821C897.553 321.506 915.208 312.168 933.344 312.668C944.226 312.968 955.303 316.79 964.892 324.579C972.456 330.724 978.388 338.551 984.332 349.03C986.484 343.997 987.6 338.502 986.509 332.162C983.458 314.433 966.807 296.109 952.479 285.701C946.77 281.554 933.501 275.922 932.351 269.24C931.143 262.222 937.363 255.096 938.538 248.266C940.642 236.039 940.566 217.014 933.917 206.281C926.486 194.286 912.816 182.885 902.942 173.322C898.631 169.147 879.868 164.689 878.193 159.821C877.636 158.203 889.345 145.394 890.567 141.843C897.068 122.956 888.773 105.681 873.571 93.9023C845.558 72.1973 796.981 71.5421 763.689 66.9357C756.811 65.9841 738.626 71.9998 737.412 71.4117C727.182 66.4578 716.015 53.3832 706.437 45.9617C690.454 33.5776 670.037 32.46 650.751 32.46C632.493 32.46 610.105 34.9239 593.499 42.9655C590.956 44.1972 577.878 56.8866 576.465 56.4302C566.13 53.0936 555.298 38.3742 545.528 32.46C533.573 25.2231 521.18 22.2374 508.748 22.0285Z"
    stroke-linecap="round"
    stroke-linejoin="round"
    />
<path class="thick-brain-line"
    d="M50.4026 428.083C46.0305 419.614 46.2727 439.091 45.7607 441.571C43.4906 452.564 35.6044 466.419 44.2134 477.537C60.8442 499.013 81.0919 511.068 103.01 526.99C105.39 528.718 120.848 533.605 118.483 540.477C117.754 542.596 113.678 541.687 112.294 543.474C107.533 549.622 107.964 564.766 109.2 571.947C112.888 593.383 139.224 604.622 154.071 615.406C165.464 623.682 176.576 644.281 178.828 657.367C181.872 675.057 190.843 694.296 188.111 712.814C182.569 750.389 163.603 798.715 181.922 834.2"
    stroke-linecap="round"
    stroke-linejoin="round"
    />
<path class="thick-brain-line"
    d="M632.183 517.998C632.183 528.381 636.551 536.872 635.278 547.97C632.867 568.988 603.715 574.12 585.765 571.947C581.908 571.48 565.742 567.362 562.555 570.449C556.25 576.556 561.349 588.933 551.724 595.925C525.484 614.985 477.602 627.395 444.961 627.395C419.598 627.395 391.246 632.961 366.05 628.894C364.216 628.598 343.339 619.419 342.84 619.902C340.652 622.021 343.349 625.937 342.84 628.894C341.024 639.447 333.743 645.287 324.273 649.874C312.77 655.444 296.824 664.295 284.043 666.358C278.919 667.185 260.638 667.11 257.739 670.854C233.784 701.788 240.719 746.493 240.719 783.248C240.719 813.325 239.172 842.031 239.172 871.664"
    stroke-linecap="round"
    stroke-linejoin="round"
    />
<path class="thick-brain-line"
    d="M566.403 53.3835C573.178 56.6648 578.114 62.9017 583.964 67.4339C591.22 73.0558 599.605 76.5947 606.87 82.2238C646.169 112.673 685.539 162.704 674.824 214.593C667.941 247.922 607.434 231.634 598.471 266.358C595.89 276.356 591.238 298.351 604.579 304.811"
    stroke-linecap="round"
    stroke-linejoin="round"
    />
<path class="thick-brain-line"
    d="M267.1 466.021C269.837 467.346 284.211 456.48 289.242 455.668C345.358 446.61 343.307 371.28 388.501 346.963C407.143 336.932 431.637 334.668 451.874 339.568C463.226 342.316 473.442 349.982 484.705 353.618C493.462 356.445 499.991 363.449 508.375 366.929C523.091 373.037 541.699 369.41 552.659 358.794"
    stroke-linecap="round"
    stroke-linejoin="round"
    />
<path class="thick-brain-line"
    d="M105.816 182.438C114.754 199.752 108.078 216.477 122.381 234.947C131.716 247.001 150.883 256.282 165.301 260.472C175.579 263.458 185.358 267.867 195.421 271.411C208.897 276.157 223.607 273.286 237.588 274.328C246.491 274.991 255.724 276.576 264.695 275.787C274.958 274.883 283.045 268.647 292.556 265.577C298.141 263.774 305.562 261.731 309.875 257.554C330.28 237.792 320.795 207.378 344.512 189.002C350.228 184.573 355.279 178.625 362.584 176.604C385.676 170.214 407.011 178.792 428.093 187.543C434.003 189.996 441.207 197.024 447.671 197.024"
    stroke-linecap="round"
    stroke-linejoin="round"
    />
<path class="thick-brain-line"
    d="M27.5052 346.527C27.5052 348.553 31.1831 340.938 33.5291 339.234C41.0326 333.784 49.9793 328.715 58.3776 324.648C81.5527 313.426 109.613 305.814 135.935 310.063C183.632 317.762 197.404 393.367 243.612 385.908C286.813 378.935 303.054 325.248 326.44 296.936C335.272 286.244 353.929 268.494 368.607 268.494"
    stroke-linecap="round"
    stroke-linejoin="round"
    />
<path class="thick-brain-line"
    d="M382.175 351.058C382.948 351.432 384.982 352.687 385.917 351.782C391.42 346.452 390.208 342.771 400.882 340.187C427.812 333.666 445.399 325.717 452.514 298.152C455.955 284.822 444.369 270.018 454.011 257.567C460.453 249.247 482.817 242.799 492.922 245.246C496.271 246.057 497.444 248.492 501.153 246.696"
    stroke-linecap="round"
    stroke-linejoin="round"
    />
<path class="thick-brain-line"
    d="M885.775 163.351C880.073 160.59 878.055 154.662 873.054 151.755C864.938 147.039 854.711 139.523 845.367 137.261C814.125 129.696 786.796 149.938 772.035 175.672C757.461 201.079 760.852 235.046 742.851 258.291C738.366 264.083 722.318 277.946 716.661 266.988"
    stroke-linecap="round"
    stroke-linejoin="round"
    />
<path class="thin-brain-line"
    d="M546.705 503.135C554.523 487.991 563.985 475.224 560.848 456.995C558.112 441.095 538.513 428.881 555.637 412.296C561.272 406.839 569.497 401.212 577.968 400.04C588.444 398.591 600.814 401.059 607.744 392.11"
    stroke-linecap="round"
    stroke-linejoin="round"
/>
<path class="thin-brain-line"
    d="M108.266 549.997C112.646 541.514 114.387 536.138 121.665 529.089C128.425 522.542 139.067 521.834 147.718 520.438C189.402 513.709 218.282 551.63 253.42 562.974C277.698 570.812 318.263 572.109 327.858 544.229"
    stroke-linecap="round"
    stroke-linejoin="round"
/>
<path class="thin-brain-line"
    d="M394.107 53.9861C396.24 58.1181 397.101 54.7188 400.062 56.8699C403.824 59.6026 406.912 67.9759 408.995 72.0097C418.55 90.5184 418.48 136.236 452.169 125.36C473.362 118.518 463.787 88.6463 499.064 92.9171C517.195 95.1122 526.869 120.313 545.96 120.313"
    stroke-linecap="round"
    stroke-linejoin="round"
/>
<path class="thin-brain-line"
    d="M930.616 255.966C935.4 258.283 929.218 272.285 927.649 276.086C919.835 295.003 902.344 304.758 883.134 312.732C866.743 319.536 843.918 323.305 826.748 317.762C813.574 313.509 787.825 299.29 774.072 301.954C751.01 306.421 723.43 345.875 705.074 342.912C700.029 342.098 697.211 336.948 693.203 335.008"
    stroke-linecap="round"
    stroke-linejoin="round"
/>
<path class="thin-brain-line"
    d="M568.561 568.54C568.561 565.217 558.277 566.444 554.465 564.229C536.865 554.002 500.579 541.934 481.757 555.606C473.761 561.414 461.248 581.167 472.854 588.66"
    stroke-linecap="round"
    stroke-linejoin="round"
/>
<path class="falling-number"
    d="M836.893 479.132C800.351 435.183 773.814 523.382 810.039 538.418C841.013 551.275 849.366 494.133 836.893 479.132Z"
    stroke-linecap="round"
    stroke-linejoin="round"
/>
<path class="falling-number"
    d="M757.12 595.026C774.357 611.721 783.927 544.317 778.445 608.031C777.635 617.446 777.569 655.626 780.025 650.869"
    stroke-linecap="round"
    stroke-linejoin="round"
/>
<path class="falling-number"
    d="M726.316 591.966C700.749 566.819 683.062 621.501 700.251 640.924C730.817 675.462 747.215 612.522 726.316 591.966Z"
    stroke-linecap="round"
    stroke-linejoin="round"
/>
<path class="falling-number"
    d="M881.914 674.583C861.618 646.818 818.03 701.537 829.785 724.307C843.352 750.587 900.195 699.593 881.914 674.583Z"
    stroke-linecap="round"
    stroke-linejoin="round"
/>
<path class="falling-number"
    d="M993.281 797.744C979.594 773.881 916.171 755.854 924.565 804.629C934.051 859.751 1036.18 872.539 993.281 797.744Z"
    stroke-linecap="round"
    stroke-linejoin="round"
/>
<path class="falling-number"
    d="M750.011 771.735C759.263 776.215 748.696 731.448 753.96 736.546C773.031 755.017 782.221 780.831 807.669 793.154"
    stroke-linecap="round"
    stroke-linejoin="round"
/>
<path class="falling-number"
    d="M699.856 753.758C652.579 737.453 639.267 819.191 681.295 831.403C716.581 841.655 718.951 760.343 699.856 753.758Z"
    stroke-linecap="round"
    stroke-linejoin="round"
/>
<path class="falling-number"
    d="M926.145 489.46C931.8 489.46 943.909 485.44 949.05 487.93C951.331 489.035 949.84 499.295 949.84 501.699C949.84 516.193 949.05 530.735 949.05 545.303"
    stroke-linecap="round"
    stroke-linejoin="round"
/>
<path class="falling-number"
    d="M964.847 549.128C962.229 549.972 939.028 550.896 938.782 550.657"
    stroke-linecap="round"
    stroke-linejoin="round"
/>
<path class="falling-number"
    d="M733.425 480.28C731.526 479.36 707.511 474.925 704.201 474.925"
    stroke-linecap="round"
    stroke-linejoin="round"
/>
<path class="falling-number"
    d="M719.207 479.515C712.079 489.872 710.995 506.585 708.94 518.529C708.647 520.232 706.056 527.211 707.36 528.473C708.673 529.745 720.142 533.063 722.367 533.063"
    stroke-linecap="round"
    stroke-linejoin="round"
/>
<path class="falling-number"
    d="M831.364 842.495C828.225 835.959 822.058 831.702 814.778 835.228C801.395 841.708 784.068 876.976 799.771 886.481C828.673 903.976 840.857 862.258 831.364 842.495Z"
    stroke-linecap="round"
    stroke-linejoin="round"
/>
<path class="falling-number"
    d="M907.188 893.366C910.864 900.485 928.349 890.911 929.304 891.836C930.412 892.909 926.484 903.362 926.145 904.84C924.92 910.177 918.364 938.727 920.616 943.089C921.212 944.244 941.941 944.896 941.941 950.739C941.941 952.94 931.18 948.198 929.304 947.679C924.112 946.242 896.921 938.679 896.921 945.384"
    stroke-linecap="round"
    stroke-linejoin="round"
/>
<path class="two"
    d="M942.731 634.04C949.545 630.74 968.044 624.168 972.745 633.275C974.655 636.974 972.859 635.358 973.535 638.629C974.396 642.8 976.313 646.99 975.114 651.634C971.751 664.664 960.055 676.963 952.999 688.353C951.816 690.263 940.362 702.761 940.362 702.887C940.362 705.021 951.763 702.322 952.999 702.122C955.155 701.774 957.256 700.992 959.318 700.592C969.15 698.688 979.527 700.592 989.331 700.592"
    stroke="#68c40c"
    opacity="1"
    fill="none"
    stroke-linecap="round"
    stroke-linejoin="round"
    stroke-width="30"
/>
<path class="thin-brain-line"
    d="M627.546 508.063C628.021 508.982 629.462 509.268 629.797 510.243C630.621 512.636 617.437 518.499 615.541 518.237C604.896 516.764 602.036 505.852 602.036 497.163"
    stroke-linecap="round"
    stroke-linejoin="round"
/>
<path class="thin-brain-line"
    d="M604.287 574.919C604.287 574.192 604.775 572.187 604.287 572.739C602.388 574.884 601.285 577.583 599.785 580.006C599.034 581.217 598.126 582.349 597.534 583.639C595.109 588.922 595.283 596.872 595.283 602.533C595.283 613.994 602.316 622.426 610.289 630.148C612.609 632.395 615.553 633.805 617.042 636.688"
    stroke-linecap="round"
    stroke-linejoin="round"
/>
<path class="thick-brain-line"
    d="M596.783 611.98C567.937 625.95 551.296 664.573 554.766 694.823C555.299 699.469 556.724 706.705 559.268 710.811C560.484 712.774 562.645 713.719 563.77 715.898C566.402 720.996 569.669 730.953 575.024 734.065C578.237 735.932 582.045 737.231 584.778 739.879C586.322 741.374 586.318 743.168 588.53 744.239"
    stroke-linecap="round"
    stroke-linejoin="round"
/>
<path class="thick-brain-line"
    d="M557.767 707.177C540.007 712.911 529.562 742.77 523.253 758.046C521.122 763.206 517.694 768.616 518.751 774.76C520.98 787.713 534.614 795 536.758 807.461C538.708 818.788 533.088 827.986 531.506 838.709C530.262 847.142 529.255 856.376 529.255 864.87"
    stroke-linecap="round"
    stroke-linejoin="round"
/>
<path class="thin-brain-line"
    d="M638.801 550.211C643.74 550.211 650.472 570.394 651.556 575.646C652.524 580.331 653.309 586.776 652.307 591.633C651.619 594.961 644.803 597.076 644.803 599.627C644.803 604.019 651.635 607.851 653.057 611.98C656.406 621.712 657.904 634.625 655.308 644.682C654.152 649.16 652.847 656.512 649.305 659.942C647.865 661.337 644.803 659.437 644.803 662.122C644.803 664.923 649.561 666.034 650.056 669.389C651.173 676.968 652.64 688.767 650.056 696.277C648.446 700.953 645.839 705.503 641.802 708.631C640.596 709.565 635.244 709.923 635.8 711.537C636.25 712.845 639.113 714.503 639.551 716.624C641.428 725.712 640.194 737.18 635.8 745.692C633.742 749.678 628.862 753.745 624.545 755.139C622.867 755.681 620.875 755.1 619.293 755.866C617.836 756.571 618.092 764.986 617.042 766.766C614.054 771.831 609.808 777.557 608.788 783.48C607.629 790.216 604.789 798.786 600.535 804.554C596.516 810.004 586.157 809.455 582.527 814.728C581.155 816.722 585.879 828.733 586.279 831.442C587.442 839.324 588.448 849.901 586.279 857.603C583.183 868.598 565.334 883.195 553.265 880.857C547.275 879.697 545.701 873.531 542.011 869.957C540.2 868.203 538.029 868.784 536.758 866.323"
    stroke-linecap="round"
    stroke-linejoin="round"
/>
</g>
</svg>
